<?xml version="1.0" encoding="UTF-8" ?>
<!DOCTYPE svg PUBLIC "-//W3C//DTD SVG 1.1//EN" "http://www.w3.org/Graphics/SVG/1.1/DTD/svg11.dtd">
<svg width="456pt" height="56pt" viewBox="0 0 456 56" version="1.1" xmlns="http://www.w3.org/2000/svg">
  <defs>
    <style type="text/css"></style>
  </defs>
  <path fill="rgb(254, 209, 55)" opacity="1.00" d=" M 75.11 3.98 C 81.79 10.57 88.08 17.59 95.08 23.83 C 102.12 17.88 107.88 10.55 114.84 4.50 C 115.28 19.66 114.88 34.84 115.06 50.01 C 111.71 50.01 108.37 50.00 105.02 49.97 C 104.94 42.88 105.14 35.79 104.83 28.71 C 101.53 31.88 98.33 35.17 95.05 38.38 C 91.74 35.20 88.54 31.91 85.19 28.76 C 84.99 35.85 85.16 42.93 85.05 50.01 C 81.71 50.01 78.36 50.01 75.02 50.03 C 75.05 34.68 74.88 19.33 75.11 3.98 Z" />
  <path fill="rgb(254, 209, 55)" opacity="1.00" d=" M 377.07 3.98 C 383.67 10.74 390.29 17.48 397.02 24.11 C 403.78 17.70 409.94 10.67 416.94 4.51 C 417.23 19.66 417.08 34.82 417.01 49.97 C 413.69 50.00 410.36 50.00 407.04 49.97 C 406.92 42.88 407.13 35.79 406.87 28.70 C 403.53 31.87 400.33 35.17 397.04 38.39 C 393.74 35.21 390.55 31.90 387.20 28.76 C 387.01 35.84 387.03 42.92 387.05 50.01 C 383.71 50.01 380.36 50.00 377.02 49.97 C 377.02 34.64 376.92 19.31 377.07 3.98 Z" />
  <path fill="rgb(254, 209, 55)" opacity="1.00" d=" M 34.05 6.04 C 45.35 5.97 56.66 5.99 67.96 6.03 C 68.03 20.68 68.02 35.32 67.96 49.97 C 56.66 50.01 45.35 50.03 34.05 49.96 C 33.98 35.32 33.97 20.68 34.05 6.04 M 44.07 16.12 C 44.01 24.04 44.01 31.96 44.07 39.88 C 48.69 39.86 53.30 39.85 57.92 39.87 C 57.93 31.96 57.93 24.04 57.92 16.13 C 53.30 16.15 48.68 16.14 44.07 16.12 Z" />
  <path fill="rgb(254, 209, 55)" opacity="1.00" d=" M 241.02 6.03 C 244.37 6.00 247.71 5.99 251.05 5.99 C 250.98 11.65 251.09 17.31 251.13 22.97 C 255.69 23.03 260.25 23.04 264.82 22.91 C 264.82 17.27 264.83 11.63 264.79 5.99 C 268.18 5.99 271.56 5.99 274.95 6.01 C 274.84 15.03 274.96 24.05 274.86 33.08 C 270.93 33.12 267.01 33.15 263.08 33.20 C 262.93 39.91 263.06 46.63 262.94 53.34 C 259.59 52.32 256.28 51.21 252.98 50.07 C 253.00 44.45 252.94 38.83 252.83 33.21 C 248.90 33.13 244.98 33.12 241.05 33.13 C 240.96 24.10 241.00 15.06 241.02 6.03 Z" />
  <path fill="rgb(254, 209, 55)" opacity="1.00" d=" M 200.07 4.00 C 208.04 11.68 215.55 19.85 223.83 27.20 C 224.02 20.14 223.92 13.07 224.00 6.01 C 227.33 6.00 230.67 6.00 234.01 6.00 C 233.94 21.33 234.09 36.67 233.93 52.00 C 225.96 44.30 218.44 36.13 210.15 28.76 C 209.95 35.84 210.05 42.92 210.06 50.00 C 206.70 50.00 203.35 50.00 200.00 50.00 C 200.03 34.66 199.91 19.33 200.07 4.00 Z" />
  <path fill="rgb(254, 209, 55)" opacity="1.00" d=" M 295.09 3.98 C 303.03 11.70 310.62 19.79 318.83 27.23 C 319.07 20.16 318.87 13.09 318.95 6.03 C 322.29 6.00 325.62 6.00 328.96 6.03 C 329.00 21.36 329.08 36.69 328.91 52.02 C 320.97 44.30 313.37 36.22 305.17 28.77 C 304.93 35.84 305.13 42.91 305.04 49.97 C 301.71 50.00 298.37 50.00 295.04 49.97 C 295.00 34.64 294.91 19.31 295.09 3.98 Z" />
  <path fill="rgb(254, 209, 55)" opacity="1.00" d=" M 0.00 6.00 C 10.08 6.03 20.17 5.94 30.25 6.05 C 29.20 9.40 28.12 12.75 27.02 16.09 C 21.37 16.17 15.72 16.17 10.07 16.15 C 9.99 24.05 10.00 31.95 10.07 39.86 C 15.71 39.83 21.35 39.83 26.99 39.93 C 27.00 43.28 27.00 46.63 27.01 49.98 C 18.01 50.02 9.00 49.99 0.00 50.00 L 0.00 6.00 Z" />
  <path fill="rgb(254, 209, 55)" opacity="1.00" d=" M 122.04 6.03 C 132.06 5.96 142.07 6.00 152.08 6.02 C 152.07 15.05 152.16 24.08 152.01 33.10 C 145.38 33.18 138.75 33.11 132.12 33.18 C 132.01 38.78 132.04 44.38 132.02 49.99 C 128.69 50.01 125.37 50.01 122.04 49.98 C 121.97 35.33 121.97 20.68 122.04 6.03 M 132.06 16.18 C 132.04 18.43 132.04 20.68 132.05 22.93 C 135.37 22.99 138.70 23.00 142.03 22.98 C 142.00 20.69 141.98 18.41 141.96 16.12 C 138.66 16.13 135.36 16.15 132.06 16.18 Z" />
  <path fill="rgb(254, 209, 55)" opacity="1.00" d=" M 158.98 6.01 C 170.31 6.01 181.64 5.96 192.96 6.04 C 193.02 20.68 193.03 35.33 192.96 49.97 C 189.63 50.00 186.29 50.00 182.96 49.98 C 182.92 44.38 182.92 38.79 182.89 33.20 C 180.60 33.15 178.31 33.10 176.02 33.05 C 174.85 29.76 173.75 26.45 172.70 23.12 C 176.12 23.01 179.55 22.97 182.97 22.90 C 182.94 20.65 182.89 18.40 182.85 16.15 C 178.25 16.12 173.65 16.16 169.05 16.16 C 168.98 27.43 169.20 38.70 169.02 49.97 C 165.70 50.00 162.37 50.00 159.04 49.97 C 158.94 35.32 159.05 20.67 158.98 6.01 Z" />
  <path fill="rgb(254, 209, 55)" opacity="1.00" d=" M 336.00 6.01 C 347.34 5.99 358.67 6.00 370.01 6.00 C 369.99 20.67 369.98 35.34 370.01 50.00 C 366.67 50.00 363.33 50.00 359.99 49.99 C 359.96 44.41 359.99 38.83 359.90 33.25 C 357.58 33.16 355.26 33.06 352.95 32.93 C 351.80 29.67 350.68 26.40 349.62 23.11 C 353.07 23.01 356.53 22.98 359.99 22.94 C 359.96 20.68 359.95 18.42 359.93 16.16 C 355.31 16.14 350.69 16.15 346.07 16.17 C 346.04 27.45 346.02 38.72 346.05 50.00 C 342.70 50.00 339.35 50.00 336.01 50.00 C 335.99 35.33 336.00 20.67 336.00 6.01 Z" />
  <path fill="rgb(254, 209, 55)" opacity="1.00" d=" M 424.01 6.01 C 434.08 6.02 444.16 5.94 454.23 6.05 C 453.22 9.42 452.13 12.77 451.01 16.10 C 445.38 16.17 439.74 16.14 434.11 16.17 C 434.06 18.43 434.03 20.69 434.00 22.95 C 439.66 23.02 445.31 22.98 450.97 23.04 C 451.00 26.40 451.00 29.76 450.99 33.13 C 445.36 33.17 439.73 33.14 434.10 33.18 C 434.07 35.40 434.06 37.62 434.05 39.84 C 439.70 39.83 445.34 39.82 450.99 39.90 C 451.00 43.27 451.00 46.63 451.01 49.99 C 442.01 50.01 433.01 50.00 424.01 49.99 C 424.00 35.33 424.00 20.67 424.01 6.01 Z" />
</svg>
