<?xml version="1.0" encoding="UTF-8" ?>
<!DOCTYPE svg PUBLIC "-//W3C//DTD SVG 1.1//EN" "http://www.w3.org/Graphics/SVG/1.1/DTD/svg11.dtd">
<svg width="408pt" height="61pt" viewBox="0 0 408 61" version="1.1" xmlns="http://www.w3.org/2000/svg">
<g id="#ffffffff">
</g>
<g id="#010101ff">
<path fill="#010101" opacity="1.00" d=" M 71.07 11.97 C 70.91 9.33 75.37 9.47 75.17 12.03 C 75.34 21.41 75.25 30.81 75.21 40.19 C 73.80 41.14 71.03 41.32 71.07 39.00 C 70.95 29.99 70.94 20.98 71.07 11.97 Z" />
<path fill="#010101" opacity="1.00" d=" M 120.23 10.16 C 121.94 9.46 123.70 11.17 123.23 12.92 C 123.22 25.94 123.35 38.98 123.17 52.00 C 123.45 53.34 121.28 54.49 120.25 53.79 C 118.63 53.21 119.12 51.34 118.99 50.02 C 119.00 38.01 119.01 26.00 118.99 13.99 C 119.09 12.64 118.68 10.84 120.23 10.16 Z" />
<path fill="#010101" opacity="1.00" d=" M 186.17 11.19 C 186.99 9.41 188.86 10.30 190.21 10.79 C 190.25 20.53 190.33 30.28 190.17 40.02 C 189.56 40.35 188.35 41.01 187.74 41.34 C 186.77 40.45 185.75 39.48 186.01 38.02 C 186.08 29.08 185.77 20.11 186.17 11.19 Z" />
<path fill="#010101" opacity="1.00" d=" M 262.01 12.90 C 261.71 11.34 262.97 10.42 263.96 9.49 C 265.11 10.37 266.59 11.24 266.23 12.96 C 266.26 22.05 266.30 31.14 266.19 40.23 C 264.85 40.79 263.14 41.46 262.17 39.91 C 261.79 30.92 262.08 21.90 262.01 12.90 Z" />
<path fill="#010101" opacity="1.00" d=" M 327.07 11.99 C 326.84 9.35 331.34 9.48 331.17 11.98 C 331.35 21.38 331.23 30.78 331.21 40.19 C 329.80 41.06 327.04 41.41 327.07 39.04 C 326.94 30.03 326.94 21.00 327.07 11.99 Z" />
<path fill="#010101" opacity="1.00" d=" M 7.77 13.78 C 12.09 9.58 18.61 11.27 24.00 11.08 C 29.65 11.37 32.79 17.99 30.79 22.93 C 29.54 24.18 28.15 23.18 27.03 22.40 C 26.88 20.07 27.54 16.44 24.57 15.64 C 21.08 14.92 17.43 15.19 13.89 15.44 C 11.52 15.57 9.34 17.58 9.33 20.02 C 9.18 24.02 9.17 28.03 9.33 32.02 C 9.37 34.49 11.48 36.63 13.95 36.67 C 17.65 36.72 21.54 37.22 25.10 36.02 C 28.43 34.58 25.30 29.27 28.88 28.41 C 29.46 28.48 30.62 28.64 31.20 28.71 C 31.27 32.11 31.66 36.24 28.72 38.65 C 25.31 41.89 20.21 40.83 15.95 41.01 C 12.75 41.19 9.23 40.49 7.20 37.79 C 4.26 34.17 5.12 29.25 4.98 24.94 C 4.98 21.12 4.61 16.57 7.77 13.78 Z" />
<path fill="#010101" opacity="1.00" d=" M 45.24 11.18 C 50.91 11.34 57.83 9.34 62.47 13.58 C 65.97 16.75 65.23 21.74 65.26 25.97 C 65.15 30.01 66.03 34.73 62.90 37.94 C 59.25 42.42 52.95 40.68 47.95 41.01 C 43.20 41.48 38.49 37.74 38.07 32.97 C 37.90 28.60 37.99 24.22 38.01 19.85 C 38.01 15.75 41.24 11.96 45.24 11.18 M 45.51 15.61 C 43.62 16.20 42.38 18.09 42.32 20.02 C 42.16 24.03 42.17 28.06 42.34 32.07 C 42.37 34.53 44.51 36.65 46.97 36.67 C 50.28 36.82 53.62 36.89 56.93 36.58 C 59.23 36.41 60.93 34.24 60.92 32.00 C 61.07 27.98 61.08 23.96 60.92 19.94 C 61.11 17.27 58.55 15.21 56.01 15.32 C 52.52 15.27 48.95 14.91 45.51 15.61 Z" />
<path fill="#010101" opacity="1.00" d=" M 78.12 11.19 C 81.58 10.87 85.18 10.70 88.59 11.52 C 92.25 12.52 94.30 16.38 94.23 19.99 C 94.23 26.34 94.36 32.70 94.17 39.05 C 94.35 40.60 92.39 41.15 91.18 40.90 C 89.52 39.86 90.14 37.72 89.97 36.10 C 89.80 30.09 90.45 24.01 89.62 18.05 C 88.36 13.93 83.15 15.64 79.98 15.23 C 77.54 16.05 75.84 12.41 78.12 11.19 Z" />
<path fill="#010101" opacity="1.00" d=" M 95.24 11.05 C 99.35 11.11 103.55 10.57 107.59 11.51 C 111.49 12.71 113.14 17.12 112.99 20.89 C 112.92 27.22 113.22 33.57 112.83 39.90 C 111.87 41.48 110.13 40.78 108.80 40.21 C 108.58 33.16 109.01 26.09 108.58 19.05 C 108.50 16.20 105.61 14.88 103.08 15.27 C 99.97 14.77 95.63 16.62 93.68 13.31 C 94.07 12.75 94.85 11.62 95.24 11.05 Z" />
<path fill="#010101" opacity="1.00" d=" M 125.31 11.46 C 128.03 10.44 131.20 11.17 134.09 11.02 C 139.90 10.86 145.04 16.10 144.97 21.87 C 144.75 27.27 146.37 33.87 141.90 38.02 C 138.03 42.12 131.95 40.85 126.92 40.98 C 124.39 41.50 123.35 37.08 126.17 36.84 C 130.81 36.18 137.49 38.48 140.17 33.29 C 141.09 28.64 141.19 23.56 140.03 18.96 C 137.41 13.69 130.79 15.74 126.12 15.14 C 124.26 14.99 123.91 12.43 125.31 11.46 Z" />
<path fill="#010101" opacity="1.00" d=" M 154.73 11.77 C 159.38 10.35 164.36 11.20 169.15 11.02 C 173.02 10.72 176.83 13.94 176.92 17.86 C 177.27 23.23 176.64 28.63 177.25 33.98 C 178.11 36.54 180.98 38.86 179.12 41.67 C 175.53 41.65 174.05 37.87 173.11 34.98 C 172.15 29.21 173.27 23.31 172.53 17.53 C 171.97 15.07 169.01 15.22 167.05 15.23 C 163.28 15.42 159.34 14.67 155.72 16.03 C 155.37 17.70 155.24 20.03 153.14 20.42 C 148.99 18.99 151.53 12.90 154.73 11.77 Z" />
<path fill="#010101" opacity="1.00" d=" M 192.18 14.83 C 190.53 13.57 191.91 10.71 193.87 11.02 C 197.10 10.96 200.35 10.83 203.57 11.21 C 207.69 11.76 210.34 15.99 210.23 19.95 C 210.28 26.71 210.26 33.47 210.21 40.23 C 208.85 40.61 207.02 41.63 206.18 39.87 C 205.68 33.22 206.26 26.52 205.91 19.86 C 205.84 18.25 205.28 16.34 203.67 15.66 C 199.93 14.60 195.90 15.94 192.18 14.83 Z" />
<path fill="#010101" opacity="1.00" d=" M 215.98 11.86 C 217.05 10.71 218.29 9.75 219.87 10.74 C 221.75 14.84 222.90 19.22 224.47 23.44 C 225.77 27.66 227.78 31.71 228.24 36.16 C 226.83 36.55 225.10 37.53 224.26 35.69 C 221.33 27.82 218.65 19.83 215.98 11.86 Z" />
<path fill="#010101" opacity="1.00" d=" M 238.72 11.61 C 239.35 9.86 241.53 10.32 242.51 11.46 C 242.86 12.69 242.34 13.91 241.93 15.06 C 237.61 26.43 233.60 37.93 229.24 49.28 C 227.81 53.61 222.34 54.95 218.42 53.52 C 217.70 52.32 218.43 51.04 218.80 49.88 C 221.06 49.59 224.46 50.33 225.33 47.48 C 229.96 35.59 234.07 23.48 238.72 11.61 Z" />
<path fill="#010101" opacity="1.00" d=" M 268.16 14.78 C 266.54 13.73 268.07 12.06 268.63 10.93 C 272.28 11.10 275.96 10.79 279.61 11.21 C 283.73 11.82 286.36 16.05 286.24 20.03 C 286.24 26.35 286.35 32.68 286.18 38.99 C 286.36 41.03 282.96 41.75 282.19 39.85 C 281.66 33.24 282.26 26.58 281.92 19.95 C 281.85 18.30 281.32 16.30 279.61 15.65 C 275.88 14.58 271.83 16.00 268.16 14.78 Z" />
<path fill="#010101" opacity="1.00" d=" M 292.53 19.53 C 290.84 16.26 293.54 11.90 297.06 11.34 C 301.36 10.68 305.75 11.07 310.09 11.01 C 313.98 10.69 317.81 13.91 317.93 17.86 C 318.22 22.93 317.76 28.03 318.13 33.10 C 318.38 35.60 320.59 37.40 320.95 39.87 C 320.40 41.89 317.68 42.00 316.77 40.23 C 312.39 35.14 314.03 28.05 313.77 21.93 C 313.83 19.53 314.15 15.52 310.79 15.34 C 306.12 15.40 301.23 14.56 296.72 16.03 C 296.73 18.19 295.00 21.99 292.53 19.53 Z" />
<path fill="#010101" opacity="1.00" d=" M 334.14 11.18 C 337.61 10.87 341.21 10.69 344.62 11.53 C 348.26 12.55 350.30 16.40 350.24 20.00 C 350.28 26.75 350.28 33.50 350.20 40.25 C 348.85 40.67 346.97 41.58 346.17 39.82 C 345.67 33.20 346.26 26.53 345.92 19.90 C 345.84 18.25 345.29 16.24 343.55 15.62 C 340.45 14.85 337.21 15.55 334.07 15.06 C 332.82 14.09 332.57 11.98 334.14 11.18 Z" />
<path fill="#010101" opacity="1.00" d=" M 351.27 11.05 C 355.35 11.11 359.52 10.58 363.54 11.49 C 367.50 12.69 369.17 17.17 368.99 20.98 C 368.91 27.27 369.24 33.58 368.82 39.85 C 367.92 41.51 366.12 40.77 364.80 40.22 C 364.63 33.49 364.89 26.76 364.68 20.04 C 364.65 18.19 363.88 15.94 361.85 15.49 C 358.32 14.91 354.69 15.63 351.17 14.99 C 350.80 14.55 350.06 13.67 349.69 13.23 C 350.08 12.69 350.87 11.59 351.27 11.05 Z" />
<path fill="#010101" opacity="1.00" d=" M 377.51 13.46 C 381.43 9.81 387.26 11.29 392.10 11.01 C 396.77 10.48 401.36 14.34 401.21 19.14 C 401.88 22.31 400.65 26.56 396.90 26.90 C 392.02 27.06 387.10 27.17 382.23 26.83 C 380.44 26.08 381.21 24.09 381.80 22.80 C 386.81 22.69 391.83 22.81 396.85 22.69 C 396.97 20.25 397.63 16.42 394.49 15.62 C 390.78 14.92 386.91 15.21 383.16 15.41 C 380.80 15.45 379.23 17.74 379.32 19.96 C 379.24 24.24 379.05 28.54 379.44 32.81 C 379.75 35.41 382.53 36.66 384.89 36.67 C 388.29 36.77 391.84 37.10 395.15 36.11 C 398.14 35.04 395.78 29.31 399.91 29.97 C 403.51 33.38 399.81 40.21 395.11 40.68 C 389.93 41.02 384.28 41.84 379.42 39.58 C 374.89 37.13 374.76 31.46 374.98 26.96 C 375.23 22.45 374.01 17.04 377.51 13.46 Z" />
<path fill="#010101" opacity="1.00" d=" M 150.96 30.93 C 150.57 27.22 152.99 23.02 157.01 22.83 C 161.71 22.66 166.42 22.65 171.12 22.94 C 171.01 24.15 171.81 26.66 169.94 26.88 C 165.39 27.41 160.73 26.43 156.23 27.42 C 154.62 29.19 155.33 31.82 155.31 33.99 C 155.25 37.07 158.84 36.78 160.96 36.79 C 164.33 37.06 167.61 36.11 170.93 35.95 C 173.22 37.15 171.63 40.02 169.57 40.35 C 165.21 41.49 160.57 41.03 156.12 40.81 C 151.67 39.89 150.46 34.84 150.96 30.93 Z" />
<path fill="#010101" opacity="1.00" d=" M 296.31 23.18 C 300.79 22.30 305.47 22.87 310.03 22.79 C 312.55 22.11 313.23 26.32 310.98 26.89 C 306.43 27.39 301.77 26.45 297.26 27.40 C 295.52 29.73 295.99 33.36 296.97 35.92 C 301.63 37.89 307.03 36.31 311.92 35.90 C 313.50 36.68 313.38 39.12 311.76 39.79 C 307.79 41.80 303.12 40.81 298.84 40.98 C 295.08 41.19 291.95 37.80 292.00 34.13 C 291.64 30.14 291.84 24.80 296.31 23.18 Z" />
</g>
</svg>
