<?xml version="1.0" encoding="UTF-8" ?>
<!DOCTYPE svg PUBLIC "-//W3C//DTD SVG 1.1//EN" "http://www.w3.org/Graphics/SVG/1.1/DTD/svg11.dtd">
<svg width="674pt" height="60pt" viewBox="0 0 674 60" version="1.1" xmlns="http://www.w3.org/2000/svg">
<g id="Rainbow Six Siege">
<path fill="rgba(254, 209, 55, 1.0)" opacity="1.00" d=" M 0.00 1.00 C 4.42 1.00 8.83 1.00 13.25 1.00 C 13.25 20.00 13.25 39.00 13.25 58.00 C 8.83 58.00 4.42 58.00 0.00 58.00 L 0.00 1.00 Z" />
<path fill="rgba(254, 209, 55, 1.0)" opacity="1.00" d=" M 15.63 0.92 C 21.91 0.96 28.94 0.84 34.16 4.89 C 39.34 8.87 39.72 16.29 38.29 22.16 C 37.57 25.47 35.04 28.06 31.80 28.95 C 34.47 30.21 36.99 32.16 37.86 35.11 C 40.26 42.52 38.05 50.45 39.50 58.01 C 35.06 57.97 30.61 58.06 26.17 57.92 C 24.95 51.01 26.77 43.83 24.98 37.03 C 23.54 33.22 18.83 34.03 15.62 33.98 C 15.62 30.66 15.62 27.34 15.62 24.02 C 18.74 23.91 22.75 24.74 24.80 21.69 C 26.15 18.56 26.37 13.81 23.13 11.76 C 20.84 10.51 18.11 11.15 15.62 10.98 C 15.62 7.63 15.62 4.27 15.63 0.92 Z" />
<path fill="rgba(254, 209, 55, 1.0)" opacity="1.00" d=" M 58.00 0.98 C 63.60 0.99 69.19 0.88 74.78 1.02 C 79.48 20.02 84.26 39.00 89.00 58.00 C 84.46 57.98 79.92 58.08 75.38 57.90 C 74.62 53.93 73.57 50.02 72.82 46.05 C 69.05 45.97 65.29 46.00 61.53 46.00 C 62.19 43.04 62.81 40.07 63.38 37.09 C 65.90 36.99 68.43 36.99 70.95 37.00 C 69.41 29.25 68.02 21.48 66.43 13.75 C 63.08 28.46 59.85 43.21 56.58 57.94 C 52.27 58.04 47.95 57.99 43.63 58.00 C 48.50 39.01 53.27 20.00 58.00 0.98 Z" />
<path fill="rgba(254, 209, 55, 1.0)" opacity="1.00" d=" M 93.00 0.98 C 97.42 0.94 101.83 0.95 106.25 0.99 C 106.25 19.99 106.25 39.00 106.25 58.00 C 101.83 58.00 97.42 58.00 93.00 58.00 C 93.00 38.99 93.00 19.99 93.00 0.98 Z" />
<path fill="rgba(254, 209, 55, 1.0)" opacity="1.00" d=" M 113.85 1.01 C 117.84 0.95 121.83 0.92 125.82 0.97 C 135.66 20.03 145.67 39.01 155.62 58.01 C 151.71 57.99 147.80 58.00 143.89 58.01 C 133.98 38.95 123.83 20.02 113.85 1.01 Z" />
<path fill="rgba(254, 209, 55, 1.0)" opacity="1.00" d=" M 143.00 0.98 C 147.00 0.92 151.00 0.93 155.00 0.99 C 154.96 18.38 155.08 35.77 154.94 53.16 C 150.87 45.89 146.86 38.56 143.09 31.13 C 142.87 21.09 143.07 11.03 143.00 0.98 Z" />
<path fill="rgba(254, 209, 55, 1.0)" opacity="1.00" d=" M 163.00 0.99 C 167.42 0.94 171.83 0.94 176.25 0.99 C 176.25 19.99 176.25 38.99 176.25 58.00 C 171.83 58.00 167.42 58.00 163.00 58.00 C 163.00 38.99 163.00 19.99 163.00 0.99 Z" />
<path fill="rgba(254, 209, 55, 1.0)" opacity="1.00" d=" M 178.63 0.94 C 184.89 0.94 191.90 0.85 197.12 4.86 C 202.33 8.83 202.72 16.28 201.29 22.16 C 200.59 25.42 198.10 27.94 194.97 28.95 C 198.30 30.06 201.14 32.56 202.09 36.01 C 203.89 42.13 203.42 49.94 198.03 54.14 C 192.54 58.37 185.18 58.02 178.62 58.00 C 178.62 54.67 178.62 51.35 178.62 48.02 C 181.81 47.82 185.67 48.73 188.19 46.23 C 190.19 43.44 190.26 39.35 188.50 36.45 C 186.27 33.27 181.94 34.11 178.62 33.98 C 178.62 30.66 178.62 27.34 178.62 24.02 C 181.75 23.91 185.77 24.74 187.82 21.67 C 189.15 18.54 189.34 13.86 186.17 11.77 C 183.82 10.66 181.13 11.08 178.62 10.97 C 178.62 7.63 178.62 4.28 178.63 0.94 Z" />
<path fill="rgba(254, 209, 55, 1.0)" opacity="1.00" d=" M 213.48 4.51 C 217.44 1.27 222.78 0.46 227.75 0.65 C 227.75 3.56 227.75 6.47 227.77 9.38 C 224.94 9.85 222.11 11.78 222.32 14.97 C 222.21 24.96 222.19 34.96 222.33 44.95 C 222.23 48.08 224.88 50.19 227.77 50.61 C 227.75 53.52 227.75 56.42 227.75 59.33 C 222.87 59.21 217.63 58.53 213.83 55.16 C 209.99 51.99 209.00 46.73 209.00 42.01 C 208.99 33.33 209.01 24.66 208.99 15.99 C 208.98 11.82 210.16 7.28 213.48 4.51 Z" />
<path fill="rgba(254, 209, 55, 1.0)" opacity="1.00" d=" M 230.00 0.72 C 235.41 0.44 241.49 1.44 245.34 5.60 C 248.21 8.59 248.97 12.93 249.00 16.93 C 248.99 25.62 249.02 34.32 248.99 43.01 C 249.01 48.10 247.12 53.86 242.41 56.45 C 238.73 58.81 234.27 59.26 230.00 59.29 C 229.99 56.36 229.98 53.43 230.06 50.50 C 233.06 50.29 235.78 48.11 235.68 44.93 C 235.75 34.65 235.91 24.35 235.59 14.08 C 235.45 11.06 232.43 9.95 229.99 9.22 C 230.00 6.39 230.00 3.56 230.00 0.72 Z" />
<path fill="rgba(254, 209, 55, 1.0)" opacity="1.00" d=" M 252.63 0.98 C 256.81 0.96 260.99 0.95 265.17 0.99 C 268.81 19.98 272.26 39.00 275.83 58.00 C 272.66 58.01 269.49 58.01 266.32 57.95 C 261.81 38.95 257.17 19.97 252.63 0.98 Z" />
<path fill="rgba(254, 209, 55, 1.0)" opacity="1.00" d=" M 273.65 27.48 C 275.71 18.65 277.61 9.79 279.65 0.95 C 283.30 0.92 286.97 0.89 290.62 1.10 C 294.70 20.10 299.18 39.02 303.35 58.00 C 300.00 58.00 296.65 58.02 293.30 57.96 C 290.56 44.93 287.92 31.88 285.20 18.85 C 282.31 30.14 280.32 41.65 277.60 52.99 C 276.18 45.99 275.01 38.95 273.55 31.96 C 273.13 30.47 273.30 28.95 273.65 27.48 Z" />
<path fill="rgba(254, 209, 55, 1.0)" opacity="1.00" d=" M 305.09 0.98 C 309.23 0.97 313.37 0.97 317.51 0.93 C 313.48 18.00 309.09 34.98 304.88 52.01 C 303.19 45.00 301.59 37.97 299.98 30.95 C 299.36 29.13 300.03 27.28 300.33 25.48 C 302.05 17.34 303.36 9.12 305.09 0.98 Z" />
<path fill="rgba(254, 209, 55, 1.0)" opacity="1.00" d=" M 347.18 7.14 C 350.81 1.85 357.77 1.18 363.63 0.91 C 363.63 3.93 363.63 6.95 363.62 9.97 C 361.11 10.55 357.76 11.72 358.22 14.96 C 357.79 18.94 362.06 20.45 364.63 22.45 C 370.39 26.65 376.69 30.22 381.88 35.14 C 386.62 39.79 387.71 47.70 384.28 53.39 C 381.24 57.99 375.49 59.31 370.37 60.00 L 366.62 60.00 C 366.62 56.76 366.63 53.52 366.60 50.28 C 368.71 49.77 371.34 49.69 372.61 47.61 C 373.78 45.06 372.01 42.42 370.06 40.86 C 364.21 35.98 357.88 31.71 351.74 27.21 C 345.87 22.71 342.75 13.66 347.18 7.14 Z" />
<path fill="rgba(254, 209, 55, 1.0)" opacity="1.00" d=" M 366.63 0.82 C 371.30 1.27 376.40 1.62 380.21 4.71 C 383.97 7.57 385.27 12.47 385.35 16.99 C 380.95 17.01 376.56 17.00 372.18 17.00 C 372.03 13.66 370.06 10.68 366.64 10.02 C 366.61 6.95 366.62 3.89 366.63 0.82 Z" />
<path fill="rgba(254, 209, 55, 1.0)" opacity="1.00" d=" M 393.00 0.98 C 397.42 0.92 401.83 0.95 406.25 1.00 C 406.25 20.00 406.25 39.00 406.25 58.00 C 401.83 58.00 397.42 58.00 393.00 58.00 C 393.00 38.99 393.00 19.99 393.00 0.98 Z" />
<path fill="rgba(254, 209, 55, 1.0)" opacity="1.00" d=" M 413.20 0.93 C 417.82 0.96 422.44 0.95 427.06 0.97 C 437.93 19.95 448.72 38.98 459.52 58.00 C 454.96 57.93 450.39 58.13 445.83 57.93 C 444.81 57.36 444.50 56.10 443.86 55.19 C 433.67 37.09 423.30 19.09 413.20 0.93 Z" />
<path fill="rgba(254, 209, 55, 1.0)" opacity="1.00" d=" M 444.30 1.13 C 448.91 0.82 453.54 0.97 458.16 1.00 C 453.58 9.41 448.78 17.71 444.05 26.05 C 442.03 22.40 439.92 18.82 437.92 15.17 C 440.14 10.54 442.31 5.87 444.30 1.13 Z" />
<path fill="rgba(254, 209, 55, 1.0)" opacity="1.00" d=" M 492.02 5.08 C 495.99 1.54 501.58 1.24 506.62 0.89 C 506.62 3.91 506.63 6.92 506.63 9.93 C 504.78 10.66 502.17 10.91 501.46 13.10 C 500.99 15.11 501.02 17.75 502.88 19.07 C 509.77 24.21 517.23 28.62 523.85 34.12 C 529.32 38.70 531.03 47.23 527.28 53.37 C 524.25 58.00 518.47 59.32 513.34 60.00 L 509.62 60.00 C 509.62 56.76 509.62 53.52 509.60 50.28 C 511.70 49.78 514.31 49.69 515.60 47.64 C 516.79 45.10 515.03 42.44 513.09 40.88 C 509.26 37.68 505.20 34.77 501.18 31.82 C 497.00 28.78 492.06 26.15 489.87 21.18 C 486.97 16.13 487.51 9.02 492.02 5.08 Z" />
<path fill="rgba(254, 209, 55, 1.0)" opacity="1.00" d=" M 509.63 0.83 C 514.33 1.27 519.46 1.62 523.27 4.77 C 527.00 7.63 528.27 12.50 528.35 16.99 C 523.95 17.01 519.56 17.00 515.18 17.00 C 515.02 13.65 513.07 10.67 509.64 10.02 C 509.61 6.95 509.62 3.89 509.63 0.83 Z" />
<path fill="rgba(254, 209, 55, 1.0)" opacity="1.00" d=" M 536.00 0.98 C 540.41 0.93 544.83 0.95 549.25 0.99 C 549.25 19.99 549.25 39.00 549.25 58.00 C 544.83 58.00 540.41 58.00 536.00 58.00 C 536.00 38.99 536.00 19.99 536.00 0.98 Z" />
<path fill="rgba(254, 209, 55, 1.0)" opacity="1.00" d=" M 557.00 0.98 C 561.41 0.96 565.83 0.96 570.25 0.99 C 570.25 19.99 570.25 39.00 570.25 58.00 C 565.83 58.00 561.41 58.00 557.00 58.00 C 557.00 38.99 557.00 19.99 557.00 0.98 Z" />
<path fill="rgba(254, 209, 55, 1.0)" opacity="1.00" d=" M 572.00 0.98 C 577.66 0.98 583.33 0.94 589.00 0.97 C 589.00 4.31 589.00 7.66 589.00 11.00 C 583.33 11.00 577.66 11.00 572.00 11.00 C 572.00 7.66 572.00 4.32 572.00 0.98 Z" />
<path fill="rgba(254, 209, 55, 1.0)" opacity="1.00" d=" M 596.11 7.20 C 599.56 1.77 606.62 0.36 612.62 0.70 C 612.62 3.57 612.62 6.43 612.64 9.30 C 610.33 9.88 607.45 11.06 607.44 13.90 C 606.98 22.58 607.40 31.31 607.24 40.01 C 607.36 42.57 606.78 45.40 608.20 47.71 C 609.02 49.44 611.11 49.59 612.68 50.30 C 612.60 53.20 612.61 56.10 612.67 59.01 C 605.61 59.36 597.17 56.54 594.94 49.11 C 593.16 41.91 594.33 34.40 594.00 27.06 C 594.40 20.46 592.71 13.26 596.11 7.20 Z" />
<path fill="rgba(254, 209, 55, 1.0)" opacity="1.00" d=" M 614.62 0.65 C 620.40 0.47 626.95 1.42 630.97 6.01 C 634.32 10.04 634.13 15.60 633.95 20.54 C 629.65 20.48 625.36 20.47 621.08 20.56 C 620.90 17.82 621.30 15.00 620.58 12.33 C 619.52 10.01 616.82 9.73 614.63 9.25 C 614.62 6.38 614.62 3.52 614.62 0.65 Z" />
<path fill="rgba(254, 209, 55, 1.0)" opacity="1.00" d=" M 641.00 0.99 C 645.41 0.95 649.83 0.95 654.25 0.98 C 654.25 19.99 654.25 38.99 654.25 58.00 C 649.83 58.00 645.41 58.00 641.00 58.00 C 641.00 38.99 641.00 19.99 641.00 0.99 Z" />
<path fill="rgba(254, 209, 55, 1.0)" opacity="1.00" d=" M 656.00 0.98 C 661.67 0.97 667.34 0.96 673.01 0.98 C 673.05 4.32 673.04 7.66 673.01 11.00 C 667.34 11.00 661.67 11.00 656.00 11.00 C 656.00 7.66 656.00 4.32 656.00 0.98 Z" />
<path fill="rgba(254, 209, 55, 1.0)" opacity="1.00" d=" M 114.07 4.74 C 118.17 12.34 122.13 20.05 125.91 27.81 C 126.13 37.87 125.93 47.94 126.00 58.00 C 122.00 58.00 118.00 58.00 114.00 58.00 C 114.05 40.25 113.91 22.49 114.07 4.74 Z" />
<path fill="rgba(254, 209, 55, 1.0)" opacity="1.00" d=" M 572.00 23.00 C 577.33 23.00 582.66 23.00 588.00 23.00 C 588.00 26.33 588.00 29.67 588.00 33.00 C 582.66 33.00 577.33 33.00 572.00 33.00 C 572.00 29.67 572.00 26.33 572.00 23.00 Z" />
<path fill="rgba(254, 209, 55, 1.0)" opacity="1.00" d=" M 656.00 23.00 C 661.33 23.00 666.66 23.00 672.00 23.00 C 672.00 26.33 672.00 29.67 672.00 33.00 C 666.66 33.00 661.33 33.00 656.00 33.00 C 656.00 29.67 656.00 26.33 656.00 23.00 Z" />
<path fill="rgba(254, 209, 55, 1.0)" opacity="1.00" d=" M 613.62 24.00 C 620.41 24.00 627.21 24.00 634.00 24.00 C 634.00 35.33 634.00 46.66 634.00 57.99 C 631.92 58.00 629.84 58.00 627.77 58.02 C 626.86 56.68 625.95 55.34 625.04 54.00 C 622.69 57.45 618.65 58.94 614.63 59.20 C 614.62 56.21 614.62 53.22 614.60 50.23 C 616.87 49.85 619.69 49.43 620.59 46.92 C 621.30 44.01 620.94 40.96 621.01 37.99 C 620.87 36.43 621.25 34.39 619.69 33.42 C 617.73 32.79 615.63 33.06 613.62 32.95 C 613.62 29.97 613.62 26.99 613.62 24.00 Z" />
<path fill="rgba(254, 209, 55, 1.0)" opacity="1.00" d=" M 427.54 31.20 C 429.82 34.75 431.90 38.42 433.97 42.10 C 431.52 47.37 429.22 52.71 426.73 57.96 C 422.17 58.03 417.61 57.99 413.05 58.00 C 417.69 48.97 422.90 40.24 427.54 31.20 Z" />
<path fill="rgba(254, 209, 55, 1.0)" opacity="1.00" d=" M 343.88 42.01 C 348.18 42.00 352.48 42.00 356.79 42.00 C 357.31 44.29 357.47 47.00 359.45 48.59 C 360.75 49.40 362.21 49.89 363.63 50.46 C 363.62 53.64 363.63 56.82 363.63 60.00 L 361.25 60.00 C 356.54 59.57 351.49 58.45 348.20 54.76 C 344.87 51.41 344.16 46.51 343.88 42.01 Z" />
<path fill="rgba(254, 209, 55, 1.0)" opacity="1.00" d=" M 486.88 42.01 C 491.18 42.00 495.48 42.00 499.79 42.00 C 500.31 44.29 500.47 46.99 502.45 48.58 C 503.75 49.40 505.21 49.89 506.64 50.47 C 506.62 53.65 506.62 56.82 506.63 60.00 L 504.24 60.00 C 499.54 59.57 494.50 58.45 491.22 54.78 C 487.88 51.42 487.15 46.52 486.88 42.01 Z" />
<path fill="rgba(254, 209, 55, 1.0)" opacity="1.00" d=" M 572.00 48.00 C 577.66 48.00 583.33 48.00 589.00 48.00 C 589.00 51.33 589.00 54.67 589.00 58.00 C 583.33 58.00 577.66 58.00 572.00 58.00 C 572.00 54.67 572.00 51.33 572.00 48.00 Z" />
<path fill="rgba(254, 209, 55, 1.0)" opacity="1.00" d=" M 656.00 48.00 C 661.67 48.00 667.34 48.00 673.01 48.00 C 673.05 51.33 673.05 54.67 673.02 58.00 C 667.34 58.00 661.67 58.00 656.00 58.00 C 656.00 54.67 656.00 51.33 656.00 48.00 Z" />
</g>
</svg>
